<svg width="439" height="39" viewBox="0 0 439 39" fill="none" xmlns="http://www.w3.org/2000/svg">
<line y1="31.25" x2="439" y2="31.25" stroke="#12231A" stroke-width="1.5"/>
<path d="M52.5963 18V15.48C53.663 14.8667 54.5763 14.2733 55.3363 13.7C56.1097 13.1267 56.743 12.58 57.2363 12.06C57.7297 11.5267 58.0963 11.0267 58.3363 10.56C58.5763 10.08 58.6963 9.62667 58.6963 9.2C58.6963 8.78667 58.583 8.44 58.3563 8.16C58.1297 7.86667 57.7763 7.72 57.2963 7.72C56.7497 7.72 56.3363 7.92667 56.0563 8.34C55.7897 8.75333 55.6563 9.38667 55.6563 10.24L52.1563 9.3C52.1697 8.24667 52.4097 7.37333 52.8763 6.68C53.343 5.98667 53.983 5.46667 54.7963 5.12C55.623 4.77333 56.543 4.6 57.5563 4.6C58.503 4.6 59.303 4.73333 59.9563 5C60.623 5.25333 61.1563 5.59333 61.5563 6.02C61.9697 6.43333 62.2697 6.89333 62.4563 7.4C62.643 7.89333 62.7363 8.38667 62.7363 8.88C62.7363 9.74667 62.5097 10.54 62.0563 11.26C61.603 11.98 60.9763 12.6533 60.1763 13.28C59.3763 13.8933 58.4497 14.48 57.3963 15.04V15.08C57.6497 15.0533 57.9363 15.0333 58.2563 15.02C58.5763 15.0067 58.9163 15 59.2763 15C59.6363 14.9867 59.983 14.98 60.3163 14.98H62.8563V18H52.5963ZM69.2081 18.2C68.0747 18.2 67.0614 17.9933 66.1681 17.58C65.2881 17.1533 64.5214 16.4267 63.8681 15.4L67.4081 13.66C67.5414 14.1267 67.7481 14.5067 68.0281 14.8C68.3214 15.08 68.7481 15.22 69.3081 15.22C69.6547 15.22 69.9481 15.16 70.1881 15.04C70.4414 14.92 70.6347 14.74 70.7681 14.5C70.9014 14.26 70.9681 13.9667 70.9681 13.62C70.9681 13.3 70.9014 13.0333 70.7681 12.82C70.6481 12.6067 70.4614 12.44 70.2081 12.32C69.9681 12.2 69.6547 12.14 69.2681 12.14C68.9881 12.14 68.7347 12.1667 68.5081 12.22C68.2947 12.2733 68.1014 12.3467 67.9281 12.44C67.7547 12.52 67.5947 12.6267 67.4481 12.76L64.4281 12.2L65.2881 4.8H73.9081V7.86H68.1881L67.9081 9.98L67.8281 10.34H67.8481C68.1014 10.0467 68.4614 9.82667 68.9281 9.68C69.3947 9.53333 69.9081 9.46 70.4681 9.46C71.3481 9.46 72.0881 9.63333 72.6881 9.98C73.3014 10.3133 73.7681 10.7733 74.0881 11.36C74.4214 11.9467 74.5881 12.62 74.5881 13.38C74.5881 14.2333 74.4414 14.9667 74.1481 15.58C73.8547 16.1933 73.4547 16.6933 72.9481 17.08C72.4414 17.4533 71.8681 17.7333 71.2281 17.92C70.5881 18.1067 69.9147 18.2 69.2081 18.2Z" fill="#47D5B3"/>
<circle cx="63.4963" cy="31.5" r="7.5" fill="#12231A"/>
<path d="M240.469 18.2C238.976 18.2 237.749 17.9267 236.789 17.38C235.842 16.82 235.182 15.9867 234.809 14.88L238.529 13.34C238.542 13.8067 238.622 14.1733 238.769 14.44C238.916 14.7067 239.116 14.8933 239.369 15C239.636 15.0933 239.916 15.14 240.209 15.14C240.502 15.14 240.756 15.0933 240.969 15C241.196 14.8933 241.369 14.74 241.489 14.54C241.609 14.34 241.669 14.1067 241.669 13.84C241.669 13.5333 241.602 13.2933 241.469 13.12C241.349 12.9467 241.182 12.8267 240.969 12.76C240.756 12.68 240.509 12.64 240.229 12.64C240.042 12.64 239.876 12.6467 239.729 12.66C239.596 12.6733 239.436 12.6933 239.249 12.72V10.24C239.356 10.2533 239.462 10.2667 239.569 10.28C239.676 10.28 239.809 10.28 239.969 10.28C240.462 10.28 240.822 10.1733 241.049 9.96C241.276 9.74667 241.389 9.4 241.389 8.92C241.389 8.52 241.276 8.21333 241.049 8C240.836 7.77333 240.536 7.66 240.149 7.66C239.736 7.66 239.382 7.78667 239.089 8.04C238.809 8.28 238.649 8.72667 238.609 9.38L235.069 8.24C235.176 7.44 235.476 6.77333 235.969 6.24C236.476 5.70667 237.109 5.3 237.869 5.02C238.642 4.74 239.496 4.6 240.429 4.6C241.482 4.6 242.369 4.74667 243.089 5.04C243.822 5.33333 244.376 5.75333 244.749 6.3C245.136 6.84667 245.329 7.51333 245.329 8.3C245.329 8.9 245.229 9.39333 245.029 9.78C244.842 10.1667 244.602 10.4733 244.309 10.7C244.016 10.9267 243.736 11.0933 243.469 11.2C243.202 11.2933 242.996 11.34 242.849 11.34V11.42C243.009 11.42 243.236 11.4533 243.529 11.52C243.836 11.5867 244.142 11.7133 244.449 11.9C244.769 12.0867 245.036 12.3667 245.249 12.74C245.476 13.1 245.589 13.58 245.589 14.18C245.589 15.0067 245.362 15.7267 244.909 16.34C244.456 16.94 243.842 17.4 243.069 17.72C242.296 18.04 241.429 18.2 240.469 18.2ZM252.603 4.66C253.656 4.66 254.569 4.80667 255.343 5.1C256.116 5.39333 256.716 5.81333 257.143 6.36C257.569 6.90667 257.783 7.56 257.783 8.32C257.783 9.04 257.603 9.65333 257.243 10.16C256.896 10.6667 256.363 11.0533 255.643 11.32V11.34C256.456 11.5933 257.083 11.9667 257.523 12.46C257.963 12.9533 258.183 13.6 258.183 14.4C258.183 15.1733 257.956 15.84 257.503 16.4C257.063 16.96 256.429 17.4 255.603 17.72C254.776 18.04 253.776 18.2 252.603 18.2C251.443 18.2 250.449 18.04 249.623 17.72C248.796 17.4 248.156 16.96 247.703 16.4C247.263 15.84 247.043 15.1733 247.043 14.4C247.043 13.6 247.263 12.9533 247.703 12.46C248.143 11.9667 248.769 11.5933 249.583 11.34V11.32C248.876 11.0533 248.343 10.6667 247.983 10.16C247.623 9.65333 247.443 9.04 247.443 8.32C247.443 7.56 247.656 6.90667 248.083 6.36C248.509 5.81333 249.109 5.39333 249.883 5.1C250.669 4.80667 251.576 4.66 252.603 4.66ZM252.623 7.5C252.169 7.5 251.809 7.62 251.543 7.86C251.276 8.08667 251.143 8.40667 251.143 8.82C251.143 9.22 251.276 9.54 251.543 9.78C251.809 10.0067 252.169 10.12 252.623 10.12C253.076 10.12 253.429 10.0067 253.683 9.78C253.949 9.54 254.083 9.22 254.083 8.82C254.083 8.40667 253.949 8.08667 253.683 7.86C253.429 7.62 253.076 7.5 252.623 7.5ZM252.623 15.34C252.969 15.34 253.263 15.2933 253.503 15.2C253.743 15.0933 253.923 14.9333 254.043 14.72C254.176 14.5067 254.243 14.26 254.243 13.98C254.243 13.7 254.176 13.46 254.043 13.26C253.923 13.0467 253.736 12.8867 253.483 12.78C253.243 12.6733 252.956 12.62 252.623 12.62C252.289 12.62 251.996 12.6733 251.743 12.78C251.489 12.8867 251.296 13.0467 251.163 13.26C251.029 13.46 250.963 13.7 250.963 13.98C250.963 14.26 251.023 14.5067 251.143 14.72C251.276 14.9333 251.469 15.0933 251.723 15.2C251.976 15.2933 252.276 15.34 252.623 15.34Z" fill="#47D5B3"/>
<circle cx="246.869" cy="31.5" r="7.5" fill="#12231A"/>
</svg>
